<?xml version="1.0" standalone="no"?>
<!DOCTYPE svg PUBLIC "-//W3C//DTD SVG 20010904//EN"
 "http://www.w3.org/TR/2001/REC-SVG-20010904/DTD/svg10.dtd">
<svg version="1.0" xmlns="http://www.w3.org/2000/svg"
 width="450.000000pt" height="133.000000pt" viewBox="0 0 450.000000 133.000000"
 preserveAspectRatio="xMidYMid meet">

<g transform="translate(0.000000,133.000000) scale(0.100000,-0.100000)"
fill="#000000" stroke="none">
<path d="M22 803 l3 -508 24 -43 c50 -86 171 -143 331 -156 89 -8 130 -25 130
-54 1 -12 5 -9 15 10 17 31 26 34 120 43 141 12 250 52 307 112 58 61 58 57
58 603 l0 500 -495 0 -496 0 3 -507z m516 367 c9 -36 11 -37 72 -25 l35 6 -38
-33 c-20 -18 -37 -36 -37 -39 0 -3 18 -11 41 -18 60 -18 114 -78 128 -140 21
-97 8 -160 -41 -217 -34 -38 -95 -74 -128 -74 -27 0 -36 -25 -19 -57 11 -21
11 -27 2 -30 -8 -3 -13 -23 -13 -50 l0 -45 56 57 c62 63 140 105 194 105 l35
-1 -33 -14 c-18 -8 -67 -48 -110 -88 -43 -41 -92 -82 -110 -91 l-32 -17 0 -97
0 -97 -25 30 c-20 25 -24 41 -25 97 0 66 -1 68 -32 84 -18 9 -67 50 -110 91
-43 40 -92 80 -110 88 l-33 14 38 1 c56 0 125 -37 190 -102 l57 -59 0 41 c0
22 -6 50 -12 61 -10 17 -10 23 0 26 6 3 12 15 12 28 0 16 7 25 26 29 39 10 96
52 121 89 44 65 47 178 6 248 -55 94 -186 92 -257 -4 -17 -24 -21 -43 -21
-111 0 -73 3 -87 27 -123 16 -24 43 -48 67 -59 51 -24 52 -34 1 -34 -109 0
-190 109 -177 237 9 91 72 169 150 188 36 9 34 17 -10 55 l-38 32 35 -5 c19
-3 42 -8 51 -12 13 -5 19 4 28 41 13 51 24 49 39 -6z m9 -186 c4 -11 -1 -22
-12 -31 -16 -11 -21 -11 -33 1 -8 8 -12 22 -9 30 8 21 46 21 54 0z m-87 -39
c10 -12 10 -18 0 -30 -25 -30 -61 -7 -46 30 3 8 12 15 19 15 8 0 20 -7 27 -15z
m160 0 c10 -12 10 -18 0 -30 -25 -30 -61 -7 -46 30 3 8 12 15 19 15 8 0 20 -7
27 -15z m-80 -40 c10 -12 10 -18 0 -30 -25 -30 -61 -7 -46 30 3 8 12 15 19 15
8 0 20 -7 27 -15z m-70 -40 c17 -20 5 -45 -20 -45 -11 0 -23 7 -26 15 -6 15
11 45 26 45 4 0 13 -7 20 -15z m138 -19 c-4 -25 -43 -34 -51 -12 -8 20 19 47
39 39 8 -3 14 -15 12 -27z m-64 -33 c4 -9 0 -23 -9 -32 -13 -14 -17 -14 -31 1
-9 9 -14 24 -11 32 8 21 43 20 51 -1z m-80 -40 c4 -9 0 -23 -9 -32 -13 -14
-17 -14 -31 1 -9 9 -14 24 -11 32 8 21 43 20 51 -1z m160 0 c4 -9 0 -23 -9
-32 -13 -14 -17 -14 -31 1 -9 9 -14 24 -11 32 8 21 43 20 51 -1z m-85 -37 c17
-20 2 -48 -23 -44 -24 3 -34 37 -14 49 18 12 24 11 37 -5z"/>
<path d="M1260 1040 c0 -99 10 -132 47 -149 40 -18 73 -13 104 18 28 28 29 33
29 125 0 79 -3 96 -15 96 -12 0 -15 -18 -15 -98 0 -109 -6 -122 -57 -122 -44
0 -53 21 -53 129 0 84 -1 91 -20 91 -19 0 -20 -7 -20 -90z"/>
<path d="M2610 1092 l0 -37 -44 3 c-36 3 -46 0 -60 -19 -25 -37 -21 -105 8
-134 21 -21 33 -24 78 -22 l53 3 3 122 c2 117 2 122 -18 122 -16 0 -20 -6 -20
-38z m-11 -66 c7 -8 11 -36 9 -63 -3 -43 -6 -48 -29 -51 -33 -4 -53 21 -52 64
2 56 43 85 72 50z"/>
<path d="M2990 1091 l0 -39 -40 5 c-30 4 -45 1 -60 -12 -28 -25 -35 -75 -16
-118 16 -40 35 -48 103 -44 l43 2 0 123 c0 102 -2 122 -15 122 -11 0 -15 -11
-15 -39z m-11 -65 c7 -8 11 -36 9 -63 -3 -48 -3 -48 -38 -48 -32 0 -36 3 -44
37 -15 62 38 116 73 74z"/>
<path d="M3260 1092 l0 -38 -39 4 c-54 5 -81 -22 -81 -83 0 -68 31 -96 102
-92 l53 3 3 122 c2 117 2 122 -18 122 -17 0 -20 -6 -20 -38z m-11 -66 c7 -8
11 -36 9 -63 -3 -41 -6 -48 -26 -51 -13 -2 -30 2 -38 8 -17 15 -19 91 -2 108
16 16 43 15 57 -2z"/>
<path d="M1667 1103 c-13 -12 -7 -23 13 -23 11 0 20 7 20 15 0 15 -21 21 -33
8z"/>
<path d="M2417 1103 c-13 -12 -7 -23 13 -23 11 0 20 7 20 15 0 15 -21 21 -33
8z"/>
<path d="M1480 968 c0 -72 3 -88 15 -88 12 0 15 14 15 64 0 65 14 96 44 96 26
0 36 -26 36 -91 0 -57 3 -67 17 -65 14 2 16 14 14 77 -1 40 -7 79 -13 86 -6 8
-32 12 -69 11 l-59 -2 0 -88z"/>
<path d="M1664 1047 c-3 -8 -4 -47 -2 -88 2 -61 6 -74 21 -77 15 -3 17 6 17
87 0 75 -3 91 -15 91 -9 0 -18 -6 -21 -13z"/>
<path d="M1741 1048 c1 -35 57 -162 72 -164 21 -3 20 -4 56 95 23 62 27 81 17
81 -9 0 -23 -27 -36 -66 -12 -36 -25 -62 -28 -59 -4 3 -16 32 -28 63 -12 33
-28 58 -37 60 -10 2 -17 -2 -16 -10z"/>
<path d="M1937 1042 c-12 -13 -17 -37 -17 -75 0 -46 4 -58 22 -71 26 -18 71
-21 99 -6 32 17 22 26 -28 26 -37 -1 -48 3 -51 17 -3 14 4 17 36 17 62 0 95
56 56 94 -22 23 -96 21 -117 -2z m91 -31 c4 -27 -12 -41 -46 -41 -28 0 -37 21
-22 50 16 30 64 24 68 -9z"/>
<path d="M2102 971 c2 -68 6 -86 18 -86 11 0 16 15 18 65 3 73 14 92 50 88 14
-2 27 3 29 9 3 9 -12 12 -57 12 l-61 -1 3 -87z"/>
<path d="M2265 1044 c-24 -24 -15 -45 33 -77 23 -15 42 -34 42 -42 0 -19 -26
-26 -56 -14 -34 12 -45 2 -20 -17 43 -31 116 -5 116 42 0 17 -9 30 -31 42 -59
33 -65 39 -51 53 9 10 19 11 42 2 33 -12 45 -6 29 14 -16 18 -84 17 -104 -3z"/>
<path d="M2414 1047 c-3 -8 -4 -47 -2 -88 2 -61 6 -74 21 -77 15 -3 17 6 17
87 0 75 -3 91 -15 91 -9 0 -18 -6 -21 -13z"/>
<path d="M2695 1047 c-24 -18 -3 -32 23 -16 27 17 72 4 72 -21 0 -17 -7 -20
-43 -20 -50 0 -67 -13 -67 -51 0 -39 25 -54 92 -54 l58 0 0 71 c0 56 -4 74
-18 87 -22 21 -91 22 -117 4z m99 -85 c3 -5 2 -18 -1 -30 -4 -17 -13 -22 -38
-22 -36 0 -53 23 -34 46 12 15 65 19 73 6z"/>
<path d="M3356 1047 c-12 -9 -20 -31 -24 -65 -4 -44 -1 -54 21 -76 28 -27 59
-32 101 -16 43 16 31 30 -20 23 -34 -4 -48 -2 -55 8 -15 24 -10 29 27 29 53 0
74 15 74 53 0 18 -5 38 -12 45 -16 16 -90 15 -112 -1z m88 -30 c9 -15 7 -21
-8 -33 -32 -23 -66 -18 -66 9 0 46 51 62 74 24z"/>
<path d="M2247 759 c-58 -17 -97 -59 -97 -106 0 -65 27 -95 137 -151 55 -28
105 -57 111 -64 23 -28 24 -63 2 -91 -38 -48 -126 -48 -195 -1 -34 22 -40 24
-53 10 -22 -21 -9 -41 42 -65 155 -76 340 6 311 138 -9 43 -55 83 -155 136
-95 50 -116 72 -106 109 13 51 95 60 175 19 51 -25 55 -25 67 -8 17 24 10 33
-41 56 -53 23 -147 32 -198 18z"/>
<path d="M1260 515 l0 -245 160 0 160 0 0 25 0 25 -115 0 -115 0 0 220 0 220
-45 0 -45 0 0 -245z"/>
<path d="M2970 515 l0 -245 63 -1 c34 -1 88 -2 119 -3 69 -1 102 20 136 84 24
48 28 111 12 171 -26 95 -123 130 -232 84 -16 -6 -18 1 -18 74 l0 81 -40 0
-40 0 0 -245z m225 39 c72 -78 25 -244 -69 -244 -62 0 -76 24 -76 134 0 90 1
96 26 115 38 30 89 28 119 -5z"/>
<path d="M1733 621 c-35 -9 -83 -37 -83 -49 0 -4 4 -13 9 -21 7 -11 16 -10 53
8 24 11 57 21 72 21 34 0 82 -24 90 -45 15 -40 8 -45 -57 -45 -124 0 -177 -33
-177 -110 0 -58 25 -94 77 -111 40 -13 127 -6 149 12 10 8 14 8 14 0 0 -6 17
-11 40 -11 l40 0 0 126 c0 141 -12 184 -60 209 -35 18 -125 27 -167 16z m147
-226 c0 -59 -25 -85 -80 -85 -66 0 -111 59 -77 102 17 22 33 26 100 27 l57 1
0 -45z"/>
<path d="M2673 621 c-35 -9 -83 -37 -83 -49 0 -4 4 -13 9 -20 7 -11 16 -10 49
7 46 24 75 26 121 10 32 -11 51 -35 51 -63 0 -13 -12 -16 -62 -16 -126 0 -181
-35 -181 -115 0 -51 20 -80 70 -101 42 -18 95 -18 138 0 19 8 35 11 35 5 0 -5
18 -9 40 -9 l40 0 0 126 c0 141 -11 178 -59 207 -34 20 -123 29 -168 18z m147
-226 c0 -58 -25 -85 -79 -85 -75 0 -117 64 -71 110 16 16 33 20 85 20 l65 0 0
-45z"/>
<path d="M3465 619 c-22 -5 -51 -18 -65 -29 -23 -17 -23 -21 -10 -35 14 -14
20 -13 55 6 70 36 156 13 167 -45 5 -23 3 -24 -84 -28 -68 -3 -94 -9 -116 -25
-54 -40 -54 -136 1 -177 22 -16 41 -20 95 -19 37 1 93 2 125 2 l57 1 0 138 c0
150 -6 169 -59 197 -38 19 -117 26 -166 14z m152 -226 c-6 -57 -33 -83 -86
-83 -52 0 -81 23 -81 65 0 48 28 65 109 65 l64 0 -6 -47z"/>
<path d="M3890 615 c-27 -9 -46 -11 -48 -5 -2 6 -19 10 -38 10 l-34 0 0 -175
0 -175 35 0 35 0 0 114 c0 132 7 159 49 181 40 20 67 19 91 -5 18 -18 20 -33
20 -155 l0 -135 40 0 40 0 0 138 c0 161 -12 193 -77 211 -47 13 -57 13 -113
-4z"/>
<path d="M4237 616 c-27 -7 -56 -21 -65 -30 -14 -14 -15 -18 -1 -31 13 -13 19
-13 54 6 71 37 165 10 165 -48 0 -22 -4 -23 -62 -23 -126 0 -178 -34 -178
-117 0 -36 6 -50 28 -73 33 -32 100 -47 159 -34 21 4 59 6 86 5 l47 -3 0 132
c0 145 -10 179 -59 204 -42 22 -119 27 -174 12z m153 -225 c0 -59 -22 -81 -81
-81 -47 0 -81 27 -81 65 0 44 33 65 103 65 l59 0 0 -49z"/>
</g>
</svg>
